<svg viewBox="0 0 24 24" aria-hidden="true"><path class="codex-skin-folder-shape" d="M3 7a2 2 0 0 1 2-2h5l2 2h7a2 2 0 0 1 2 2v8.5a2 2 0 0 1-2 2H5a2 2 0 0 1-2-2Z"/><circle class="codex-skin-paw-fill" cx="14.2" cy="12.2" r="1"/><circle class="codex-skin-paw-fill" cx="17.2" cy="12.2" r="1"/><circle class="codex-skin-paw-fill" cx="12.8" cy="14.3" r="1"/><circle class="codex-skin-paw-fill" cx="18.6" cy="14.3" r="1"/><path class="codex-skin-paw-fill" d="M13.6 17.1c0-1.3 1.1-2.3 2.2-2.3s2.2 1 2.2 2.3c0 1-1 1.5-2.2 1.5s-2.2-.5-2.2-1.5Z"/></svg>
